<?xml version="1.0" encoding="UTF-8" standalone="no"?>
<svg
   xmlns:dc="http://purl.org/dc/elements/1.1/"
   xmlns:cc="http://creativecommons.org/ns#"
   xmlns:rdf="http://www.w3.org/1999/02/22-rdf-syntax-ns#"
   xmlns:svg="http://www.w3.org/2000/svg"
   xmlns="http://www.w3.org/2000/svg"
   xmlns:sodipodi="http://sodipodi.sourceforge.net/DTD/sodipodi-0.dtd"
   xmlns:inkscape="http://www.inkscape.org/namespaces/inkscape"
   viewBox="0 0 1280 640"
   preserveAspectRatio="xMidYMid meet"
   class="css-1y5supu"
   id="caccbbfh"
   version="1.1"
   sodipodi:docname="social-preview.svg"
   inkscape:version="1.0.1 (3bc2e813f5, 2020-09-07)"
   inkscape:export-filename="C:\Users\ndo3872\Developpement\workspaces\perso\weedow-searchy\docs\images\logos\social-preview.png"
   inkscape:export-xdpi="161.925"
   inkscape:export-ydpi="161.925"
   width="1280"
   height="640">
  <metadata
     id="metadata31">
    <rdf:RDF>
      <cc:Work
         rdf:about="">
        <dc:format>image/svg+xml</dc:format>
        <dc:type
           rdf:resource="http://purl.org/dc/dcmitype/StillImage" />
        <dc:title></dc:title>
      </cc:Work>
    </rdf:RDF>
  </metadata>
  <sodipodi:namedview
     pagecolor="#ffffff"
     bordercolor="#666666"
     borderopacity="1"
     objecttolerance="10"
     gridtolerance="10"
     guidetolerance="10"
     inkscape:pageopacity="0"
     inkscape:pageshadow="2"
     inkscape:window-width="1920"
     inkscape:window-height="1017"
     id="namedview29"
     showgrid="false"
     inkscape:zoom="0.68849995"
     inkscape:cx="743.90776"
     inkscape:cy="83.335122"
     inkscape:window-x="-8"
     inkscape:window-y="-8"
     inkscape:window-maximized="1"
     inkscape:current-layer="caccbbfh"
     inkscape:document-rotation="0" />
  <defs
     id="SvgjsDefs1017" />
  <g
     id="SvgjsG1018"
     featurekey="rootContainer"
     transform="matrix(5.8205537,0,0,5.8205537,332.79632,17.596076)"
     fill="#111111">
    <path
       d="M 104.6,41.3 A 52.2,52.2 0 0 0 101.1,30.1 51.1,51.1 0 0 0 44.3,1 49.6,49.6 0 0 0 38.6,2.5 49.1,49.1 0 0 0 30.7,5.2 51.6,51.6 0 0 0 6.3,77 a 53.7,53.7 0 0 0 4.1,6.4 57,57 0 0 0 5,5.7 51.7,51.7 0 0 0 55.3,11.5 l 3.3,-1.4 3,-1.5 a 50.9,50.9 0 0 0 5.8,-3.8 l 2.7,-2.1 1.2,-1.1 1.1,-0.9 2,-1.8 0.7,-0.6 0.6,-0.7 1.8,-2 a 48.5,48.5 0 0 0 5.9,-8.3 50.4,50.4 0 0 0 5.6,-14.7 51.6,51.6 0 0 0 0.2,-20.4 z m -17.5,47.3 -1.2,1.1 -1.2,1.1 -2.6,2.1 a 49.5,49.5 0 0 1 -5.7,3.6 l -3,1.5 -3.2,1.3 -4.9,1.6 H 64.8 A 50.9,50.9 0 0 1 44.5,101 51.8,51.8 0 0 1 33.4,97.4 50.5,50.5 0 0 1 22.9,91 52,52 0 0 1 13.8,81.6 50.3,50.3 0 0 1 10.1,75.9 C 9.5,74.9 9,73.9 8.5,72.8 8,71.7 7.5,70.7 7.2,69.6 a 50.6,50.6 0 0 1 8.6,-50.8 l 0.8,-0.8 0.5,-0.6 0.6,-0.6 1.2,-1.1 2.4,-2.1 a 50.5,50.5 0 0 1 41.1,-10.4 48.5,48.5 0 0 1 14.7,5.2 47,47 0 0 1 8.3,5.8 l 2,1.8 0.7,0.6 0.6,0.7 1.8,2 a 49.7,49.7 0 0 1 11.3,22.9 50.8,50.8 0 0 1 -0.1,20.2 51.6,51.6 0 0 1 -3.6,11 50.2,50.2 0 0 1 -6.6,10.5 l -2.1,2.4 z m -44.9,13 a 50.1,50.1 0 0 1 -13.7,-5 51.8,51.8 0 0 1 -6.2,-4 55.2,55.2 0 0 1 -5.5,-4.8 49.9,49.9 0 0 1 -11,-53.2 c 0.4,-1.1 0.9,-2.1 1.3,-3.1 l 0.6,-1.3 a 50.2,50.2 0 0 0 -3.4,11 51.3,51.3 0 0 0 2.4,28.5 c 0.4,1.1 0.9,2.2 1.4,3.2 0.5,1 1,2.1 1.6,3.1 a 50.6,50.6 0 0 0 3.7,5.8 51.5,51.5 0 0 0 9.2,9.5 50.9,50.9 0 0 0 10.7,6.5 51,51 0 0 0 28.7,3.9 50.3,50.3 0 0 1 -19.8,-0.1 z m 61.9,-39.9 a 50.2,50.2 0 0 1 -5.5,14.7 48.4,48.4 0 0 1 -5.8,8.3 l -1.8,2 -0.6,0.7 -0.7,0.6 -1.9,1.7 H 88 l 2.3,-2.4 2.1,-2.5 A 51.3,51.3 0 0 0 98.9,74 51.4,51.4 0 0 0 102.1,42.4 49.6,49.6 0 0 0 99.6,34.2 49.4,49.4 0 0 0 96.5,27.7 48.7,48.7 0 0 0 90.6,19.4 l -1.8,-2 -0.6,-0.7 -0.7,-0.6 -2,-1.8 A 49.9,49.9 0 0 0 77.3,8 49.3,49.3 0 0 0 70.8,4.8 49.8,49.8 0 0 0 62.6,2.2 52.2,52.2 0 0 0 49.9,1 50.8,50.8 0 0 1 72.6,4.2 l 3.2,1.3 3.1,1.6 a 50.1,50.1 0 0 1 5.7,3.7 l 2.6,2.1 1.2,1.1 1.2,1.1 2.3,2.3 2.1,2.4 a 50.4,50.4 0 0 1 6.5,10.5 51.6,51.6 0 0 1 3.6,11 51.1,51.1 0 0 1 0,20.3 z"
       id="path3" />
  </g>
  <g
     id="SvgjsG1019"
     featurekey="symbolFeature-0"
     transform="matrix(5.2392156,0,0,5.2392156,561.41177,149.06449)"
     fill="#83b271">
    <g
       transform="translate(-390,-320)"
       id="g16">
      <g
         id="g14">
        <path
           d="M 393,340.041 V 344 c 0,2.923 6.183,4.5 12,4.5 5.817,0 12,-1.577 12,-4.5 v -3.959 c -2.066,1.947 -7.051,2.959 -12,2.959 -4.949,0 -9.934,-1.012 -12,-2.959 z"
           id="path6" />
        <path
           d="m 405,336 c 6.627,0 12,-1.791 12,-4 v -3.959 c -2.066,1.947 -7.051,2.959 -12,2.959 -4.949,0 -9.934,-1.012 -12,-2.959 V 332 c 0,2.209 5.373,4 12,4 z"
           id="path8" />
        <path
           d="m 405,330 c 6.627,0 12,-1.791 12,-4 0,-2.923 -6.183,-4.5 -12,-4.5 -5.817,0 -12,1.577 -12,4.5 0,2.209 5.373,4 12,4 z"
           id="path10" />
        <path
           d="m 405,337 c -4.949,0 -9.934,-1.012 -12,-2.959 V 338 c 0,2.209 5.373,4 12,4 6.627,0 12,-1.791 12,-4 v -3.959 c -2.066,1.947 -7.051,2.959 -12,2.959 z"
           id="path12" />
      </g>
    </g>
  </g>
  <g
     id="SvgjsG1020"
     featurekey="nameFeature-0"
     transform="matrix(2.1788963,0,0,2.1788963,428.89297,313.47961)"
     fill="#111111">
    <text
       xml:space="preserve"
       style="font-style:normal;font-weight:normal;font-size:36.0679px;line-height:1.25;font-family:sans-serif;fill:#000000;fill-opacity:1;stroke:none;stroke-width:0.901698"
       x="23.992865"
       y="52.718666"
       id="text858"><tspan
         sodipodi:role="line"
         id="tspan856"
         x="23.992865"
         y="52.718666"
         style="font-style:normal;font-variant:normal;font-weight:normal;font-stretch:normal;font-family:Croust;-inkscape-font-specification:Croust;stroke-width:0.901698" /></text>
    <text
       xml:space="preserve"
       style="font-size:37.0923px;line-height:1.25;font-family:'DejaVu Sans Mono';-inkscape-font-specification:'DejaVu Sans Mono';stroke-width:0.869354"
       x="0.62703329"
       y="41.080227"
       id="text862"
       transform="scale(1.0305187,0.97038514)"><tspan
         sodipodi:role="line"
         id="tspan860"
         x="0.62703329"
         y="41.080227"
         style="font-style:normal;font-variant:normal;font-weight:normal;font-stretch:normal;font-size:37.0923px;font-family:Hussar;-inkscape-font-specification:Hussar;stroke-width:0.869354">SEARCHY</tspan></text>
  </g>
  <g
     id="SvgjsG1021"
     featurekey="nameFeature-1"
     transform="matrix(1.9647059,0,0,1.9647059,-651.48437,420.1939)"
     fill="#111111">
    <path
       d=""
       id="path22" />
  </g>
  <g
     id="SvgjsG1022"
     featurekey="sloganFeature-0"
     transform="matrix(1.6988725,0,0,1.6988725,539.65427,449.77046)"
     fill="#111111">
    <text
       xml:space="preserve"
       style="font-size:21.5876px;line-height:1.25;font-family:'DejaVu Sans Mono';-inkscape-font-specification:'DejaVu Sans Mono';stroke-width:1.15648"
       x="-8.9116755"
       y="20.519312"
       id="text866"><tspan
         sodipodi:role="line"
         id="tspan864"
         x="-8.9116755"
         y="20.519312"
         style="font-style:normal;font-variant:normal;font-weight:normal;font-stretch:normal;font-size:21.5876px;font-family:'Cooper Black';-inkscape-font-specification:'Cooper Black, ';stroke-width:1.15648">W E E D O W</tspan></text>
  </g>
</svg>
